{
	"patcher" : 	{
		"fileversion" : 1,
		"appversion" : 		{
			"major" : 8,
			"minor" : 5,
			"revision" : 6,
			"architecture" : "x64",
			"modernui" : 1
		}
,
		"classnamespace" : "box",
		"rect" : [ 330.0, 93.0, 527.0, 815.0 ],
		"bglocked" : 0,
		"openinpresentation" : 1,
		"default_fontsize" : 12.0,
		"default_fontface" : 0,
		"default_fontname" : "Arial",
		"gridonopen" : 1,
		"gridsize" : [ 15.0, 15.0 ],
		"gridsnaponopen" : 1,
		"objectsnaponopen" : 1,
		"statusbarvisible" : 2,
		"toolbarvisible" : 1,
		"lefttoolbarpinned" : 0,
		"toptoolbarpinned" : 0,
		"righttoolbarpinned" : 0,
		"bottomtoolbarpinned" : 0,
		"toolbars_unpinned_last_save" : 0,
		"tallnewobj" : 0,
		"boxanimatetime" : 200,
		"enablehscroll" : 1,
		"enablevscroll" : 1,
		"devicewidth" : 0.0,
		"description" : "",
		"digest" : "",
		"tags" : "",
		"style" : "",
		"subpatcher_template" : "",
		"assistshowspatchername" : 0,
		"boxes" : [ 			{
				"box" : 				{
					"bgmode" : 0,
					"border" : 0,
					"clickthrough" : 0,
					"enablehscroll" : 0,
					"enablevscroll" : 0,
					"id" : "obj-17",
					"lockeddragscroll" : 0,
					"lockedsize" : 0,
					"maxclass" : "bpatcher",
					"name" : "utils.dac~.maxpat",
					"numinlets" : 2,
					"numoutlets" : 0,
					"offset" : [ 0.0, 0.0 ],
					"patching_rect" : [ 663.0, 980.0, 128.0, 128.0 ],
					"presentation" : 1,
					"presentation_rect" : [ 4.0, 747.833333333333371, 518.0, 61.0 ],
					"viewvisibility" : 1
				}

			}
, 			{
				"box" : 				{
					"bgmode" : 0,
					"border" : 0,
					"clickthrough" : 0,
					"enablehscroll" : 0,
					"enablevscroll" : 0,
					"id" : "obj-9",
					"lockeddragscroll" : 0,
					"lockedsize" : 0,
					"maxclass" : "bpatcher",
					"name" : "utils.header.maxpat",
					"numinlets" : 1,
					"numoutlets" : 0,
					"offset" : [ 0.0, 0.0 ],
					"patching_rect" : [ 14.0, 42.5, 128.0, 128.0 ],
					"presentation" : 1,
					"presentation_rect" : [ 0.0, 0.5, 522.0, 174.0 ],
					"viewvisibility" : 1
				}

			}
, 			{
				"box" : 				{
					"code" : "[ 'title' \"virtual fundamental\" ]\n[ 'description' \"This example illustrates the perceptual ambiguity of fundamental frequencies in inharmonic spectra\"] ",
					"id" : "obj-5",
					"maxclass" : "newobj",
					"numinlets" : 1,
					"numoutlets" : 1,
					"outlettype" : [ "" ],
					"patching_rect" : [ 14.0, 9.0, 279.0, 22.0 ],
					"saved_object_attributes" : 					{
						"embed" : 1,
						"versionnumber" : 80300
					}
,
					"text" : "bach.eval @file ex.virtualfundamental.bell @auto 1"
				}

			}
, 			{
				"box" : 				{
					"code" : "$x1 + $i2 ",
					"id" : "obj-13",
					"maxclass" : "newobj",
					"numinlets" : 2,
					"numoutlets" : 1,
					"outlettype" : [ "" ],
					"patching_rect" : [ 651.5, 394.0, 178.0, 22.0 ],
					"saved_object_attributes" : 					{
						"embed" : 1,
						"versionnumber" : 80300
					}
,
					"text" : "bach.eval $x1 + $i2 @triggers 0"
				}

			}
, 			{
				"box" : 				{
					"code" : "[ 1 $x2 ] $x1 ",
					"id" : "obj-7",
					"maxclass" : "newobj",
					"numinlets" : 2,
					"numoutlets" : 1,
					"outlettype" : [ "" ],
					"patching_rect" : [ 14.0, 684.0, 129.0, 22.0 ],
					"saved_object_attributes" : 					{
						"embed" : 1,
						"versionnumber" : 80300
					}
,
					"text" : "bach.eval [ 1 $x2 ] $x1"
				}

			}
, 			{
				"box" : 				{
					"id" : "obj-4",
					"maxclass" : "newobj",
					"numinlets" : 1,
					"numoutlets" : 1,
					"outlettype" : [ "" ],
					"patching_rect" : [ 1352.0, 511.0, 87.0, 22.0 ],
					"text" : "loadmess 750."
				}

			}
, 			{
				"box" : 				{
					"id" : "obj-3",
					"maxclass" : "comment",
					"numinlets" : 1,
					"numoutlets" : 0,
					"patching_rect" : [ 1404.0, 545.0, 79.0, 20.0 ],
					"presentation" : 1,
					"presentation_rect" : [ 427.0, 231.5, 79.0, 20.0 ],
					"text" : "note duration"
				}

			}
, 			{
				"box" : 				{
					"format" : 6,
					"id" : "obj-2",
					"maxclass" : "flonum",
					"maximum" : 1000.0,
					"minimum" : 250.0,
					"numinlets" : 1,
					"numoutlets" : 2,
					"outlettype" : [ "", "bang" ],
					"parameter_enable" : 0,
					"patching_rect" : [ 1352.0, 544.0, 50.0, 22.0 ],
					"presentation" : 1,
					"presentation_rect" : [ 291.0, 231.5, 50.0, 22.0 ]
				}

			}
, 			{
				"box" : 				{
					"id" : "obj-113",
					"maxclass" : "newobj",
					"numinlets" : 1,
					"numoutlets" : 1,
					"outlettype" : [ "" ],
					"patching_rect" : [ 1945.0, 509.0, 70.0, 22.0 ],
					"text" : "loadmess 0"
				}

			}
, 			{
				"box" : 				{
					"id" : "obj-112",
					"maxclass" : "comment",
					"numinlets" : 1,
					"numoutlets" : 0,
					"patching_rect" : [ 2004.0, 546.0, 41.0, 20.0 ],
					"presentation" : 1,
					"presentation_rect" : [ 427.0, 206.5, 41.0, 20.0 ],
					"text" : "f0 mix"
				}

			}
, 			{
				"box" : 				{
					"id" : "obj-111",
					"maxclass" : "comment",
					"numinlets" : 1,
					"numoutlets" : 0,
					"patching_rect" : [ 1014.333311557769775, 281.0, 48.0, 20.0 ],
					"presentation" : 1,
					"presentation_rect" : [ 146.0, 258.5, 48.0, 20.0 ],
					"text" : "presets"
				}

			}
, 			{
				"box" : 				{
					"id" : "obj-110",
					"maxclass" : "comment",
					"numinlets" : 1,
					"numoutlets" : 0,
					"patching_rect" : [ 1747.0, 354.0, 95.0, 20.0 ],
					"presentation" : 1,
					"presentation_rect" : [ 427.0, 179.5, 95.0, 20.0 ],
					"text" : "number of steps"
				}

			}
, 			{
				"box" : 				{
					"id" : "obj-109",
					"maxclass" : "newobj",
					"numinlets" : 1,
					"numoutlets" : 1,
					"outlettype" : [ "" ],
					"patcher" : 					{
						"fileversion" : 1,
						"appversion" : 						{
							"major" : 8,
							"minor" : 5,
							"revision" : 6,
							"architecture" : "x64",
							"modernui" : 1
						}
,
						"classnamespace" : "box",
						"rect" : [ 0.0, 0.0, 640.0, 480.0 ],
						"bglocked" : 0,
						"openinpresentation" : 0,
						"default_fontsize" : 12.0,
						"default_fontface" : 0,
						"default_fontname" : "Arial",
						"gridonopen" : 1,
						"gridsize" : [ 15.0, 15.0 ],
						"gridsnaponopen" : 1,
						"objectsnaponopen" : 1,
						"statusbarvisible" : 2,
						"toolbarvisible" : 1,
						"lefttoolbarpinned" : 0,
						"toptoolbarpinned" : 0,
						"righttoolbarpinned" : 0,
						"bottomtoolbarpinned" : 0,
						"toolbars_unpinned_last_save" : 0,
						"tallnewobj" : 0,
						"boxanimatetime" : 200,
						"enablehscroll" : 1,
						"enablevscroll" : 1,
						"devicewidth" : 0.0,
						"description" : "",
						"digest" : "",
						"tags" : "",
						"style" : "",
						"subpatcher_template" : "",
						"assistshowspatchername" : 0,
						"boxes" : [ 							{
								"box" : 								{
									"id" : "obj-82",
									"maxclass" : "message",
									"numinlets" : 2,
									"numoutlets" : 1,
									"outlettype" : [ "" ],
									"patching_rect" : [ 195.5, 144.0, 29.5, 22.0 ],
									"text" : "0 1"
								}

							}
, 							{
								"box" : 								{
									"id" : "obj-81",
									"maxclass" : "message",
									"numinlets" : 2,
									"numoutlets" : 1,
									"outlettype" : [ "" ],
									"patching_rect" : [ 146.75, 144.0, 29.5, 22.0 ],
									"text" : "1 0"
								}

							}
, 							{
								"box" : 								{
									"id" : "obj-77",
									"maxclass" : "message",
									"numinlets" : 2,
									"numoutlets" : 1,
									"outlettype" : [ "" ],
									"patching_rect" : [ 98.5, 144.0, 29.5, 22.0 ],
									"text" : "1 1"
								}

							}
, 							{
								"box" : 								{
									"id" : "obj-75",
									"maxclass" : "message",
									"numinlets" : 2,
									"numoutlets" : 1,
									"outlettype" : [ "" ],
									"patching_rect" : [ 50.0, 144.0, 29.5, 22.0 ],
									"text" : "0 0"
								}

							}
, 							{
								"box" : 								{
									"id" : "obj-73",
									"maxclass" : "newobj",
									"numinlets" : 5,
									"numoutlets" : 5,
									"outlettype" : [ "bang", "bang", "bang", "bang", "" ],
									"patching_rect" : [ 50.0, 100.0, 213.0, 22.0 ],
									"text" : "sel 0 1 2 3"
								}

							}
, 							{
								"box" : 								{
									"comment" : "",
									"id" : "obj-107",
									"index" : 1,
									"maxclass" : "inlet",
									"numinlets" : 0,
									"numoutlets" : 1,
									"outlettype" : [ "int" ],
									"patching_rect" : [ 50.000040666666791, 40.0, 30.0, 30.0 ]
								}

							}
, 							{
								"box" : 								{
									"comment" : "",
									"id" : "obj-108",
									"index" : 1,
									"maxclass" : "outlet",
									"numinlets" : 1,
									"numoutlets" : 0,
									"patching_rect" : [ 116.687540666666791, 226.0, 30.0, 30.0 ]
								}

							}
 ],
						"lines" : [ 							{
								"patchline" : 								{
									"destination" : [ "obj-73", 0 ],
									"source" : [ "obj-107", 0 ]
								}

							}
, 							{
								"patchline" : 								{
									"destination" : [ "obj-75", 0 ],
									"source" : [ "obj-73", 0 ]
								}

							}
, 							{
								"patchline" : 								{
									"destination" : [ "obj-77", 0 ],
									"source" : [ "obj-73", 1 ]
								}

							}
, 							{
								"patchline" : 								{
									"destination" : [ "obj-81", 0 ],
									"source" : [ "obj-73", 2 ]
								}

							}
, 							{
								"patchline" : 								{
									"destination" : [ "obj-82", 0 ],
									"source" : [ "obj-73", 3 ]
								}

							}
, 							{
								"patchline" : 								{
									"destination" : [ "obj-108", 0 ],
									"source" : [ "obj-75", 0 ]
								}

							}
, 							{
								"patchline" : 								{
									"destination" : [ "obj-108", 0 ],
									"source" : [ "obj-77", 0 ]
								}

							}
, 							{
								"patchline" : 								{
									"destination" : [ "obj-108", 0 ],
									"source" : [ "obj-81", 0 ]
								}

							}
, 							{
								"patchline" : 								{
									"destination" : [ "obj-108", 0 ],
									"source" : [ "obj-82", 0 ]
								}

							}
 ]
					}
,
					"patching_rect" : [ 855.333333333333258, 317.0, 85.0, 22.0 ],
					"saved_object_attributes" : 					{
						"description" : "",
						"digest" : "",
						"globalpatchername" : "",
						"tags" : ""
					}
,
					"text" : "p map-presets"
				}

			}
, 			{
				"box" : 				{
					"id" : "obj-106",
					"maxclass" : "newobj",
					"numinlets" : 1,
					"numoutlets" : 2,
					"outlettype" : [ "", "" ],
					"patching_rect" : [ 14.0, 528.0, 170.0, 22.0 ],
					"text" : "t l l"
				}

			}
, 			{
				"box" : 				{
					"id" : "obj-105",
					"maxclass" : "newobj",
					"numinlets" : 1,
					"numoutlets" : 1,
					"outlettype" : [ "" ],
					"patching_rect" : [ 1695.0, 317.0, 77.0, 22.0 ],
					"text" : "loadmess 10"
				}

			}
, 			{
				"box" : 				{
					"id" : "obj-104",
					"maxclass" : "number",
					"maximum" : 15,
					"minimum" : 5,
					"numinlets" : 1,
					"numoutlets" : 2,
					"outlettype" : [ "", "bang" ],
					"parameter_enable" : 0,
					"patching_rect" : [ 1695.0, 354.0, 50.0, 22.0 ],
					"presentation" : 1,
					"presentation_rect" : [ 291.0, 179.5, 50.0, 22.0 ]
				}

			}
, 			{
				"box" : 				{
					"cols" : 4,
					"fontface" : 0,
					"fontname" : "Arial",
					"fontsize" : 12.0,
					"hscroll" : 0,
					"id" : "obj-102",
					"maxclass" : "jit.cellblock",
					"numinlets" : 2,
					"numoutlets" : 4,
					"outlettype" : [ "list", "", "", "" ],
					"patching_rect" : [ 14.0, 1036.0, 465.333332896232605, 292.666666269302368 ],
					"presentation" : 1,
					"presentation_rect" : [ 4.0, 432.0, 518.0, 313.833333333333371 ],
					"rows" : 12,
					"vscroll" : 0
				}

			}
, 			{
				"box" : 				{
					"id" : "obj-101",
					"maxclass" : "newobj",
					"numinlets" : 1,
					"numoutlets" : 1,
					"outlettype" : [ "" ],
					"patching_rect" : [ 14.0, 740.0, 109.0, 22.0 ],
					"text" : "bach.m2jitcellblock"
				}

			}
, 			{
				"box" : 				{
					"id" : "obj-100",
					"maxclass" : "comment",
					"numinlets" : 1,
					"numoutlets" : 0,
					"patching_rect" : [ 380.0, 192.0, 84.0, 20.0 ],
					"presentation" : 1,
					"presentation_rect" : [ 146.0, 206.0, 84.0, 20.0 ],
					"text" : "starting partial"
				}

			}
, 			{
				"box" : 				{
					"id" : "obj-99",
					"maxclass" : "number",
					"maximum" : 5,
					"minimum" : 2,
					"numinlets" : 1,
					"numoutlets" : 2,
					"outlettype" : [ "", "bang" ],
					"parameter_enable" : 0,
					"patching_rect" : [ 325.0, 192.0, 50.0, 22.0 ],
					"presentation" : 1,
					"presentation_rect" : [ 4.0, 206.0, 50.0, 22.0 ]
				}

			}
, 			{
				"box" : 				{
					"id" : "obj-94",
					"maxclass" : "comment",
					"numinlets" : 1,
					"numoutlets" : 0,
					"patching_rect" : [ 841.0, 193.5, 105.0, 20.0 ],
					"presentation" : 1,
					"presentation_rect" : [ 146.0, 231.5, 105.0, 20.0 ],
					"text" : "number of partials"
				}

			}
, 			{
				"box" : 				{
					"id" : "obj-93",
					"maxclass" : "comment",
					"numinlets" : 1,
					"numoutlets" : 0,
					"patching_rect" : [ 66.5, 236.5, 131.0, 20.0 ],
					"presentation" : 1,
					"presentation_rect" : [ 146.0, 179.5, 131.0, 20.0 ],
					"text" : "fundamental frequency"
				}

			}
, 			{
				"box" : 				{
					"id" : "obj-90",
					"maxclass" : "newobj",
					"numinlets" : 1,
					"numoutlets" : 1,
					"outlettype" : [ "" ],
					"patching_rect" : [ 789.0, 157.5, 70.0, 22.0 ],
					"text" : "loadmess 3"
				}

			}
, 			{
				"box" : 				{
					"id" : "obj-88",
					"maxclass" : "number",
					"maximum" : 7,
					"minimum" : 2,
					"numinlets" : 1,
					"numoutlets" : 2,
					"outlettype" : [ "", "bang" ],
					"parameter_enable" : 0,
					"patching_rect" : [ 789.0, 192.5, 50.0, 22.0 ],
					"presentation" : 1,
					"presentation_rect" : [ 4.0, 231.5, 50.0, 22.0 ]
				}

			}
, 			{
				"box" : 				{
					"id" : "obj-86",
					"maxclass" : "newobj",
					"numinlets" : 0,
					"numoutlets" : 1,
					"outlettype" : [ "clear" ],
					"patcher" : 					{
						"fileversion" : 1,
						"appversion" : 						{
							"major" : 8,
							"minor" : 5,
							"revision" : 6,
							"architecture" : "x64",
							"modernui" : 1
						}
,
						"classnamespace" : "box",
						"rect" : [ 84.0, 131.0, 451.0, 247.0 ],
						"bglocked" : 0,
						"openinpresentation" : 0,
						"default_fontsize" : 12.0,
						"default_fontface" : 0,
						"default_fontname" : "Arial",
						"gridonopen" : 1,
						"gridsize" : [ 15.0, 15.0 ],
						"gridsnaponopen" : 1,
						"objectsnaponopen" : 1,
						"statusbarvisible" : 2,
						"toolbarvisible" : 1,
						"lefttoolbarpinned" : 0,
						"toptoolbarpinned" : 0,
						"righttoolbarpinned" : 0,
						"bottomtoolbarpinned" : 0,
						"toolbars_unpinned_last_save" : 0,
						"tallnewobj" : 0,
						"boxanimatetime" : 200,
						"enablehscroll" : 1,
						"enablevscroll" : 1,
						"devicewidth" : 0.0,
						"description" : "",
						"digest" : "",
						"tags" : "",
						"style" : "",
						"subpatcher_template" : "",
						"assistshowspatchername" : 0,
						"boxes" : [ 							{
								"box" : 								{
									"id" : "obj-1",
									"maxclass" : "newobj",
									"numinlets" : 1,
									"numoutlets" : 1,
									"outlettype" : [ "bang" ],
									"patching_rect" : [ 14.0, 10.0, 58.0, 22.0 ],
									"text" : "loadbang"
								}

							}
, 							{
								"box" : 								{
									"id" : "obj-70",
									"maxclass" : "newobj",
									"numinlets" : 1,
									"numoutlets" : 2,
									"outlettype" : [ "", "clear" ],
									"patching_rect" : [ 14.0, 87.0, 142.0, 22.0 ],
									"text" : "t l clear"
								}

							}
, 							{
								"box" : 								{
									"id" : "obj-68",
									"maxclass" : "newobj",
									"numinlets" : 1,
									"numoutlets" : 1,
									"outlettype" : [ "" ],
									"patching_rect" : [ 14.0, 158.0, 96.0, 22.0 ],
									"text" : "prepend append"
								}

							}
, 							{
								"box" : 								{
									"id" : "obj-67",
									"maxclass" : "newobj",
									"numinlets" : 2,
									"numoutlets" : 2,
									"outlettype" : [ "", "" ],
									"patching_rect" : [ 14.0, 125.0, 47.0, 22.0 ],
									"text" : "zl iter 1"
								}

							}
, 							{
								"box" : 								{
									"id" : "obj-66",
									"maxclass" : "message",
									"numinlets" : 2,
									"numoutlets" : 1,
									"outlettype" : [ "" ],
									"patching_rect" : [ 14.0, 49.0, 414.0, 22.0 ],
									"text" : "\"ascending normal\" \"descending normal\" \"ascending rare\" \"descending rare\""
								}

							}
, 							{
								"box" : 								{
									"comment" : "",
									"id" : "obj-85",
									"index" : 1,
									"maxclass" : "outlet",
									"numinlets" : 1,
									"numoutlets" : 0,
									"patching_rect" : [ 14.0, 207.0, 30.0, 30.0 ]
								}

							}
 ],
						"lines" : [ 							{
								"patchline" : 								{
									"destination" : [ "obj-66", 0 ],
									"midpoints" : [ 23.5, 33.0, 23.5, 33.0 ],
									"source" : [ "obj-1", 0 ]
								}

							}
, 							{
								"patchline" : 								{
									"destination" : [ "obj-70", 0 ],
									"midpoints" : [ 23.5, 72.0, 23.5, 72.0 ],
									"source" : [ "obj-66", 0 ]
								}

							}
, 							{
								"patchline" : 								{
									"destination" : [ "obj-68", 0 ],
									"midpoints" : [ 23.5, 150.0, 23.5, 150.0 ],
									"source" : [ "obj-67", 0 ]
								}

							}
, 							{
								"patchline" : 								{
									"destination" : [ "obj-85", 0 ],
									"midpoints" : [ 23.5, 183.0, 23.5, 183.0 ],
									"source" : [ "obj-68", 0 ]
								}

							}
, 							{
								"patchline" : 								{
									"destination" : [ "obj-67", 0 ],
									"midpoints" : [ 23.5, 111.0, 23.5, 111.0 ],
									"source" : [ "obj-70", 0 ]
								}

							}
, 							{
								"patchline" : 								{
									"destination" : [ "obj-85", 0 ],
									"midpoints" : [ 146.5, 187.0, 23.5, 187.0 ],
									"source" : [ "obj-70", 1 ]
								}

							}
 ]
					}
,
					"patching_rect" : [ 855.333333666666476, 247.0, 101.0, 22.0 ],
					"saved_object_attributes" : 					{
						"description" : "",
						"digest" : "",
						"globalpatchername" : "",
						"tags" : ""
					}
,
					"text" : "p populate_menu"
				}

			}
, 			{
				"box" : 				{
					"id" : "obj-76",
					"maxclass" : "newobj",
					"numinlets" : 1,
					"numoutlets" : 2,
					"outlettype" : [ "int", "int" ],
					"patching_rect" : [ 855.333333333333258, 354.0, 438.416666666666742, 22.0 ],
					"text" : "unpack i i"
				}

			}
, 			{
				"box" : 				{
					"id" : "obj-64",
					"items" : [ "ascending normal", ",", "descending normal", ",", "ascending rare", ",", "descending rare" ],
					"maxclass" : "umenu",
					"numinlets" : 1,
					"numoutlets" : 3,
					"outlettype" : [ "int", "", "" ],
					"parameter_enable" : 0,
					"patching_rect" : [ 855.333333666666476, 281.0, 153.0, 22.0 ],
					"presentation" : 1,
					"presentation_rect" : [ 4.0, 258.5, 128.0, 22.0 ]
				}

			}
, 			{
				"box" : 				{
					"format" : 6,
					"id" : "obj-39",
					"maxclass" : "flonum",
					"maximum" : 1.0,
					"minimum" : 0.0,
					"numinlets" : 1,
					"numoutlets" : 2,
					"outlettype" : [ "", "bang" ],
					"parameter_enable" : 0,
					"patching_rect" : [ 1945.0, 545.0, 50.0, 22.0 ],
					"presentation" : 1,
					"presentation_rect" : [ 291.0, 205.5, 50.0, 22.0 ]
				}

			}
, 			{
				"box" : 				{
					"id" : "obj-36",
					"maxclass" : "newobj",
					"numinlets" : 1,
					"numoutlets" : 4,
					"outlettype" : [ "", "", "", "" ],
					"patching_rect" : [ 325.0, 282.0, 345.5, 22.0 ],
					"text" : "t l l l l"
				}

			}
, 			{
				"box" : 				{
					"id" : "obj-27",
					"maxclass" : "message",
					"numinlets" : 2,
					"numoutlets" : 1,
					"outlettype" : [ "" ],
					"patching_rect" : [ 415.5, 684.0, 35.0, 22.0 ],
					"text" : "clear"
				}

			}
, 			{
				"box" : 				{
					"id" : "obj-25",
					"maxclass" : "newobj",
					"numinlets" : 1,
					"numoutlets" : 2,
					"outlettype" : [ "", "bang" ],
					"patching_rect" : [ 165.0, 636.0, 269.5, 22.0 ],
					"text" : "t l b"
				}

			}
, 			{
				"box" : 				{
					"id" : "obj-24",
					"maxclass" : "newobj",
					"numinlets" : 2,
					"numoutlets" : 3,
					"outlettype" : [ "", "", "" ],
					"patching_rect" : [ 165.0, 684.0, 198.0, 22.0 ],
					"saved_object_attributes" : 					{
						"versionnumber" : 80300
					}
,
					"text" : "bach.iter @maxdepth 1 @unwrap 1"
				}

			}
, 			{
				"box" : 				{
					"code" : "$notedur = $f3 ||| 500.; $mix = $f4 ||| 0; for $chord $idx in f2mc($x1) collect [ 'addchord' [ ($idx-1)*$notedur (for $mc $mcidx in flat($chord) collect ($amp = 1/(1.25**(if $mcidx == 1 then 1 else $x2:($mcidx - 1))); $vel = sqrt((if $mcidx == 1 then $mix else (1-$mix))*$amp)*127; if $vel > 0 then [ $mc $notedur $vel ] ) ) ] ] ",
					"id" : "obj-22",
					"maxclass" : "newobj",
					"numinlets" : 4,
					"numoutlets" : 1,
					"outlettype" : [ "" ],
					"patching_rect" : [ 165.0, 583.0, 1798.0, 22.0 ],
					"saved_object_attributes" : 					{
						"embed" : 1,
						"versionnumber" : 80300
					}
,
					"text" : "bach.eval $notedur = $f3 ||| 500.\\; $mix = $f4 ||| 0\\; for $chord $idx in f2mc($x1) collect [ 'addchord' [ ($idx-1)*$notedur (for $mc $mcidx in flat($chord) collect ($amp = 1/(1.25**(if $mcidx == 1 then 1 else $x2:($mcidx - 1)))\\; $vel = sqrt((if $mcidx == 1 then $mix else (1-$mix))*$amp)*127\\; if $vel > 0 then [ $mc $notedur $vel ] ) ) ] ] @triggers 0"
				}

			}
, 			{
				"box" : 				{
					"code" : "$numnotes = $i5 ||| 10; $desc = $i3 ||| 0; $invert = $i4 ||| 0; $indices = $x2 + $desc; $incr = ($x1:2 - $x1:1) / $numnotes; $spectra = for $n in 0...$numnotes collect [ ($partials = $x1 + ($incr * $n); reduce($partials / $indices, #+) / length($indices) $partials) ]; if $invert then rev($spectra) else $spectra ",
					"id" : "obj-19",
					"maxclass" : "newobj",
					"numinlets" : 5,
					"numoutlets" : 1,
					"outlettype" : [ "" ],
					"patching_rect" : [ 14.0, 443.0, 1700.0, 22.0 ],
					"saved_object_attributes" : 					{
						"embed" : 1,
						"versionnumber" : 80300
					}
,
					"text" : "bach.eval $numnotes = $i5 ||| 10\\; $desc = $i3 ||| 0\\; $invert = $i4 ||| 0\\; $indices = $x2 + $desc\\; $incr = ($x1:2 - $x1:1) / $numnotes\\; $spectra = for $n in 0...$numnotes collect [ ($partials = $x1 + ($incr * $n)\\; reduce($partials / $indices\\, #+) / length($indices) $partials) ]\\; if $invert then rev($spectra) else $spectra @triggers 0"
				}

			}
, 			{
				"box" : 				{
					"bwcompatibility" : 80300,
					"clefs" : [ "FG" ],
					"defaultnoteslots" : [ "null" ],
					"embed" : 0,
					"fontface" : 0,
					"fontname" : "Arial",
					"fontsize" : 12.0,
					"id" : "obj-18",
					"loop" : [ 0.0, 1000.0 ],
					"maxclass" : "bach.roll",
					"numinlets" : 6,
					"numoutlets" : 8,
					"numvoices" : 1,
					"out" : "nnnnnnn",
					"outlettype" : [ "", "", "", "", "", "", "", "bang" ],
					"patching_rect" : [ 165.0, 747.0, 600.0, 220.0 ],
					"pitcheditrange" : [ "null" ],
					"presentation" : 1,
					"presentation_rect" : [ 4.0, 282.5, 518.0, 144.0 ],
					"showdurations" : 0,
					"showstems" : 0,
					"showvelocity" : 3,
					"showvscrollbar" : 0,
					"stafflines" : [ 5 ],
					"textcolor" : [ 0.0, 0.0, 0.0, 1.0 ],
					"tonedivision" : 8,
					"versionnumber" : 80300,
					"voicenames" : [ "[", "]" ],
					"voicespacing" : [ 0.0, 17.0 ],
					"vzoom" : 100.0
				}

			}
, 			{
				"box" : 				{
					"id" : "obj-16",
					"maxclass" : "newobj",
					"numinlets" : 1,
					"numoutlets" : 1,
					"outlettype" : [ "" ],
					"patching_rect" : [ 325.0, 148.5, 70.0, 22.0 ],
					"text" : "loadmess 3"
				}

			}
, 			{
				"box" : 				{
					"code" : "for $i in ($x2 ||| (3 4 5)) collect $x1:($i) ",
					"id" : "obj-15",
					"maxclass" : "newobj",
					"numinlets" : 2,
					"numoutlets" : 1,
					"outlettype" : [ "" ],
					"patching_rect" : [ 14.0, 341.0, 330.0, 22.0 ],
					"saved_object_attributes" : 					{
						"embed" : 1,
						"versionnumber" : 80300
					}
,
					"text" : "bach.eval for $i in ($x2 ||| (3 4 5)) collect $x1:($i) @triggers 0"
				}

			}
, 			{
				"box" : 				{
					"code" : "$st = $i1 ||| 3; $numpartials = $i2 ||| 3; $st...($st+($numpartials - 1)) ",
					"id" : "obj-14",
					"maxclass" : "newobj",
					"numinlets" : 2,
					"numoutlets" : 1,
					"outlettype" : [ "" ],
					"patching_rect" : [ 325.0, 235.5, 483.0, 22.0 ],
					"saved_object_attributes" : 					{
						"embed" : 1,
						"versionnumber" : 80300
					}
,
					"text" : "bach.eval $st = $i1 ||| 3\\; $numpartials = $i2 ||| 3\\; $st...($st+($numpartials - 1)) @triggers 0"
				}

			}
, 			{
				"box" : 				{
					"code" : "for $i in 1...10 collect $i*($f1 ||| 200.) ",
					"id" : "obj-12",
					"maxclass" : "newobj",
					"numinlets" : 1,
					"numoutlets" : 1,
					"outlettype" : [ "" ],
					"patching_rect" : [ 14.0, 282.0, 255.0, 22.0 ],
					"saved_object_attributes" : 					{
						"embed" : 1,
						"versionnumber" : 80300
					}
,
					"text" : "bach.eval for $i in 1...10 collect $i*($f1 ||| 200.)"
				}

			}
, 			{
				"box" : 				{
					"id" : "obj-11",
					"maxclass" : "newobj",
					"numinlets" : 1,
					"numoutlets" : 1,
					"outlettype" : [ "" ],
					"patching_rect" : [ 14.0, 191.0, 87.0, 22.0 ],
					"text" : "loadmess 200."
				}

			}
, 			{
				"box" : 				{
					"format" : 6,
					"id" : "obj-10",
					"maxclass" : "flonum",
					"maximum" : 300.0,
					"minimum" : 80.0,
					"numinlets" : 1,
					"numoutlets" : 2,
					"outlettype" : [ "", "bang" ],
					"parameter_enable" : 0,
					"patching_rect" : [ 14.0, 235.5, 50.0, 22.0 ],
					"presentation" : 1,
					"presentation_rect" : [ 4.0, 179.5, 50.0, 22.0 ]
				}

			}
 ],
		"lines" : [ 			{
				"patchline" : 				{
					"destination" : [ "obj-12", 0 ],
					"midpoints" : [ 23.5, 258.0, 23.5, 258.0 ],
					"source" : [ "obj-10", 0 ]
				}

			}
, 			{
				"patchline" : 				{
					"destination" : [ "obj-102", 0 ],
					"midpoints" : [ 23.5, 765.0, 23.5, 765.0 ],
					"source" : [ "obj-101", 0 ]
				}

			}
, 			{
				"patchline" : 				{
					"destination" : [ "obj-19", 4 ],
					"midpoints" : [ 1704.5, 378.0, 1704.5, 378.0 ],
					"source" : [ "obj-104", 0 ]
				}

			}
, 			{
				"patchline" : 				{
					"destination" : [ "obj-104", 0 ],
					"midpoints" : [ 1704.5, 342.0, 1704.5, 342.0 ],
					"source" : [ "obj-105", 0 ]
				}

			}
, 			{
				"patchline" : 				{
					"destination" : [ "obj-22", 0 ],
					"midpoints" : [ 174.5, 552.0, 174.5, 552.0 ],
					"source" : [ "obj-106", 1 ]
				}

			}
, 			{
				"patchline" : 				{
					"destination" : [ "obj-7", 0 ],
					"midpoints" : [ 23.5, 552.0, 23.5, 552.0 ],
					"source" : [ "obj-106", 0 ]
				}

			}
, 			{
				"patchline" : 				{
					"destination" : [ "obj-76", 0 ],
					"midpoints" : [ 864.833333333333258, 342.0, 864.833333333333258, 342.0 ],
					"source" : [ "obj-109", 0 ]
				}

			}
, 			{
				"patchline" : 				{
					"destination" : [ "obj-10", 0 ],
					"midpoints" : [ 23.5, 216.0, 23.5, 216.0 ],
					"source" : [ "obj-11", 0 ]
				}

			}
, 			{
				"patchline" : 				{
					"destination" : [ "obj-39", 0 ],
					"midpoints" : [ 1954.5, 532.0, 1954.5, 532.0 ],
					"source" : [ "obj-113", 0 ]
				}

			}
, 			{
				"patchline" : 				{
					"destination" : [ "obj-15", 0 ],
					"midpoints" : [ 23.5, 306.0, 23.5, 306.0 ],
					"source" : [ "obj-12", 0 ]
				}

			}
, 			{
				"patchline" : 				{
					"destination" : [ "obj-7", 1 ],
					"midpoints" : [ 661.0, 429.0, 0.0, 429.0, 0.0, 669.0, 133.5, 669.0 ],
					"source" : [ "obj-13", 0 ]
				}

			}
, 			{
				"patchline" : 				{
					"destination" : [ "obj-36", 0 ],
					"midpoints" : [ 334.5, 258.0, 334.5, 258.0 ],
					"source" : [ "obj-14", 0 ]
				}

			}
, 			{
				"patchline" : 				{
					"destination" : [ "obj-19", 0 ],
					"midpoints" : [ 23.5, 366.0, 23.5, 366.0 ],
					"source" : [ "obj-15", 0 ]
				}

			}
, 			{
				"patchline" : 				{
					"destination" : [ "obj-99", 0 ],
					"midpoints" : [ 334.5, 171.0, 334.5, 171.0 ],
					"source" : [ "obj-16", 0 ]
				}

			}
, 			{
				"patchline" : 				{
					"destination" : [ "obj-17", 0 ],
					"source" : [ "obj-18", 6 ]
				}

			}
, 			{
				"patchline" : 				{
					"destination" : [ "obj-106", 0 ],
					"midpoints" : [ 23.5, 468.0, 23.5, 468.0 ],
					"source" : [ "obj-19", 0 ]
				}

			}
, 			{
				"patchline" : 				{
					"destination" : [ "obj-22", 2 ],
					"midpoints" : [ 1361.5, 567.0, 1360.5, 567.0 ],
					"source" : [ "obj-2", 0 ]
				}

			}
, 			{
				"patchline" : 				{
					"destination" : [ "obj-25", 0 ],
					"midpoints" : [ 174.5, 606.0, 174.5, 606.0 ],
					"source" : [ "obj-22", 0 ]
				}

			}
, 			{
				"patchline" : 				{
					"destination" : [ "obj-18", 0 ],
					"midpoints" : [ 174.5, 708.0, 174.5, 708.0 ],
					"source" : [ "obj-24", 0 ]
				}

			}
, 			{
				"patchline" : 				{
					"destination" : [ "obj-24", 0 ],
					"midpoints" : [ 174.5, 660.0, 174.5, 660.0 ],
					"source" : [ "obj-25", 0 ]
				}

			}
, 			{
				"patchline" : 				{
					"destination" : [ "obj-27", 0 ],
					"midpoints" : [ 425.0, 660.0, 425.0, 660.0 ],
					"source" : [ "obj-25", 1 ]
				}

			}
, 			{
				"patchline" : 				{
					"destination" : [ "obj-18", 0 ],
					"midpoints" : [ 425.0, 726.0, 174.5, 726.0 ],
					"source" : [ "obj-27", 0 ]
				}

			}
, 			{
				"patchline" : 				{
					"destination" : [ "obj-13", 0 ],
					"midpoints" : [ 661.0, 306.0, 661.0, 306.0 ],
					"source" : [ "obj-36", 3 ]
				}

			}
, 			{
				"patchline" : 				{
					"destination" : [ "obj-15", 1 ],
					"midpoints" : [ 334.5, 306.0, 334.5, 306.0 ],
					"source" : [ "obj-36", 0 ]
				}

			}
, 			{
				"patchline" : 				{
					"destination" : [ "obj-19", 1 ],
					"midpoints" : [ 443.333333333333314, 306.0, 443.75, 306.0 ],
					"source" : [ "obj-36", 1 ]
				}

			}
, 			{
				"patchline" : 				{
					"destination" : [ "obj-22", 1 ],
					"midpoints" : [ 552.166666666666629, 429.0, 0.0, 429.0, 0.0, 570.0, 767.5, 570.0 ],
					"source" : [ "obj-36", 2 ]
				}

			}
, 			{
				"patchline" : 				{
					"destination" : [ "obj-22", 3 ],
					"midpoints" : [ 1954.5, 567.0, 1953.5, 567.0 ],
					"source" : [ "obj-39", 0 ]
				}

			}
, 			{
				"patchline" : 				{
					"destination" : [ "obj-2", 0 ],
					"midpoints" : [ 1361.5, 534.0, 1361.5, 534.0 ],
					"source" : [ "obj-4", 0 ]
				}

			}
, 			{
				"patchline" : 				{
					"destination" : [ "obj-9", 0 ],
					"source" : [ "obj-5", 0 ]
				}

			}
, 			{
				"patchline" : 				{
					"destination" : [ "obj-109", 0 ],
					"midpoints" : [ 864.833333666666476, 306.0, 864.833333333333258, 306.0 ],
					"source" : [ "obj-64", 0 ]
				}

			}
, 			{
				"patchline" : 				{
					"destination" : [ "obj-101", 0 ],
					"midpoints" : [ 23.5, 708.0, 23.5, 708.0 ],
					"source" : [ "obj-7", 0 ]
				}

			}
, 			{
				"patchline" : 				{
					"destination" : [ "obj-13", 1 ],
					"midpoints" : [ 864.833333333333258, 380.0, 820.0, 380.0 ],
					"order" : 1,
					"source" : [ "obj-76", 0 ]
				}

			}
, 			{
				"patchline" : 				{
					"destination" : [ "obj-19", 3 ],
					"midpoints" : [ 1284.25, 378.0, 1284.25, 378.0 ],
					"source" : [ "obj-76", 1 ]
				}

			}
, 			{
				"patchline" : 				{
					"destination" : [ "obj-19", 2 ],
					"midpoints" : [ 864.833333333333258, 378.0, 864.0, 378.0 ],
					"order" : 0,
					"source" : [ "obj-76", 0 ]
				}

			}
, 			{
				"patchline" : 				{
					"destination" : [ "obj-64", 0 ],
					"midpoints" : [ 864.833333666666476, 270.0, 864.833333666666476, 270.0 ],
					"source" : [ "obj-86", 0 ]
				}

			}
, 			{
				"patchline" : 				{
					"destination" : [ "obj-14", 1 ],
					"midpoints" : [ 798.5, 216.0, 798.5, 216.0 ],
					"source" : [ "obj-88", 0 ]
				}

			}
, 			{
				"patchline" : 				{
					"destination" : [ "obj-88", 0 ],
					"midpoints" : [ 798.5, 180.0, 798.5, 180.0 ],
					"source" : [ "obj-90", 0 ]
				}

			}
, 			{
				"patchline" : 				{
					"destination" : [ "obj-14", 0 ],
					"midpoints" : [ 334.5, 216.0, 334.5, 216.0 ],
					"source" : [ "obj-99", 0 ]
				}

			}
 ],
		"parameters" : 		{
			"obj-17::obj-4" : [ "GAIN", "GAIN", 0 ],
			"parameterbanks" : 			{
				"0" : 				{
					"index" : 0,
					"name" : "",
					"parameters" : [ "-", "-", "-", "-", "-", "-", "-", "-" ]
				}

			}
,
			"inherited_shortname" : 1
		}
,
		"dependency_cache" : [ 			{
				"name" : "bach.args.mxo",
				"type" : "iLaX"
			}
, 			{
				"name" : "bach.eval.mxo",
				"type" : "iLaX"
			}
, 			{
				"name" : "bach.expr.mxo",
				"type" : "iLaX"
			}
, 			{
				"name" : "bach.hypercomment.mxo",
				"type" : "iLaX"
			}
, 			{
				"name" : "bach.iter.mxo",
				"type" : "iLaX"
			}
, 			{
				"name" : "bach.keys.mxo",
				"type" : "iLaX"
			}
, 			{
				"name" : "bach.length.mxo",
				"type" : "iLaX"
			}
, 			{
				"name" : "bach.m2jitcellblock.maxpat",
				"bootpath" : "~/Documents/Max 8/Packages/bach/patchers",
				"patcherrelativepath" : "../../../Max 8/Packages/bach/patchers",
				"type" : "JSON",
				"implicit" : 1
			}
, 			{
				"name" : "bach.pick.mxo",
				"type" : "iLaX"
			}
, 			{
				"name" : "bach.portal.mxo",
				"type" : "iLaX"
			}
, 			{
				"name" : "bach.roll.mxo",
				"type" : "iLaX"
			}
, 			{
				"name" : "cc_logo.png",
				"bootpath" : "~/Documents/jinx/jinx/media",
				"patcherrelativepath" : "../media",
				"type" : "PNG",
				"implicit" : 1
			}
, 			{
				"name" : "ccm_logo.png",
				"bootpath" : "~/My Drive/FTH Drive/Workshops/bach 2023/materials/bach-workshop/media",
				"patcherrelativepath" : "../../../../My Drive/FTH Drive/Workshops/bach 2023/materials/bach-workshop/media",
				"type" : "PNG",
				"implicit" : 1
			}
, 			{
				"name" : "jinx.synth.poly~.maxpat",
				"bootpath" : "~/Documents/jinx/jinx/patchers",
				"patcherrelativepath" : ".",
				"type" : "JSON",
				"implicit" : 1
			}
, 			{
				"name" : "jinx.synth~.maxpat",
				"bootpath" : "~/Documents/jinx/jinx/patchers",
				"patcherrelativepath" : ".",
				"type" : "JSON",
				"implicit" : 1
			}
, 			{
				"name" : "utils.dac~.maxpat",
				"bootpath" : "~/Documents/jinx/jinx/patchers",
				"patcherrelativepath" : ".",
				"type" : "JSON",
				"implicit" : 1
			}
, 			{
				"name" : "utils.header.maxpat",
				"bootpath" : "~/Documents/jinx/jinx/patchers",
				"patcherrelativepath" : ".",
				"type" : "JSON",
				"implicit" : 1
			}
 ],
		"autosave" : 0
	}

}
